<?xml version="1.0" encoding="utf-8"?>
<!-- Generator: Adobe Illustrator 18.1.1, SVG Export Plug-In . SVG Version: 6.00 Build 0)  -->
<svg version="1.1" id="Layer_1" xmlns="http://www.w3.org/2000/svg" xmlns:xlink="http://www.w3.org/1999/xlink" x="0px" y="0px"
	 viewBox="0 0 1024 1024" enable-background="new 0 0 1024 1024" xml:space="preserve">
<rect x="1" y="1" opacity="0" fill="none" stroke="#000000" stroke-miterlimit="10" width="1022" height="1022"/>
<g>
	<path fill="#FFFFFF" d="M545.7,555.9c-7.8,7.6-19,12.3-33.6,14.1v21.7h-19.4v-21.1c-9.6-0.5-18.7-2.2-27.4-5
		c-8.7-2.8-15.7-6.3-21-10.5l10.7-23.7c4.9,3.6,10.7,6.7,17.3,9.1c6.6,2.5,13.4,4,20.4,4.7v-32.4c-9.2-2.2-16.9-4.7-23.3-7.4
		c-6.3-2.7-11.6-6.7-15.9-11.9c-4.3-5.2-6.4-12.2-6.4-20.9c0-10.7,3.9-20,11.7-27.6c7.8-7.7,19.1-12.4,33.9-14.1v-21.5h19.4v21.1
		c15.9,1.3,29,5.2,39.4,11.8l-9.7,23.9c-9.7-5.6-19.6-8.9-29.7-10.1v33c9.1,2.1,16.7,4.4,23,7.1c6.3,2.7,11.5,6.6,15.8,11.8
		c4.3,5.2,6.4,12.1,6.4,20.7C557.3,539.2,553.4,548.3,545.7,555.9z M482,479c2.5,2.1,6,3.8,10.7,5.2v-27.6c-4.9,1.2-8.5,3-10.9,5.5
		s-3.5,5.5-3.5,8.8C478.4,474.2,479.6,476.9,482,479z M522.6,539.3c2.3-2.3,3.5-5.1,3.5-8.3c0-3.2-1.2-5.9-3.6-8
		c-2.4-2.1-5.9-3.9-10.4-5.4v26.8C516.8,543.3,520.3,541.6,522.6,539.3z"/>
</g>
<path fill="#FFFFFF" stroke="#360A56" stroke-width="5" stroke-miterlimit="10" d="M512,24c-210.9,0-381.9,171-381.9,381.9v542.9
	c0,11,9,20,20,20H423c11,0,20-9,20-20V781.6c22.4,4.1,45.5,6.2,69,6.2c210.9,0,381.9-171,381.9-381.9S722.9,24,512,24z"/>
<circle fill="#360A56" cx="512" cy="429.3" r="283.1"/>
<g>
	<path fill="#FFFFFF" d="M634.6,551.5c-20.4,21-49.4,34.9-87,41.6v56h-71.1v-53.5c-25.2-1.3-49.4-5.2-72.4-11.6
		c-23-6.4-42.1-14.3-57.3-23.7l38.3-86.8c16.8,9.8,35.6,17.6,56.5,23.5c20.8,5.9,40.9,8.8,60,8.8c16.5,0,28.3-1.6,35.3-4.8
		c7.1-3.2,10.6-8,10.6-14.4c0-7.4-4.6-12.9-13.9-16.6c-9.3-3.7-24.5-7.7-45.7-12.1c-27.2-5.7-49.9-11.9-68.1-18.4
		c-18.2-6.6-34-17.3-47.4-32.3c-13.5-15-20.2-35.2-20.2-60.8c0-29.6,10.7-55,32-76.2c21.4-21.2,52-34.6,92.1-40.4v-55h71.1v54
		c40.4,3.7,74.5,13.5,102.4,29.3l-35.8,86.3c-34.6-17.5-67.4-26.2-98.4-26.2c-30.6,0-45.9,7.4-45.9,22.2c0,7.1,4.5,12.4,13.6,15.9
		c9.1,3.5,24,7.3,44.9,11.4c26.9,5,49.6,10.8,68.1,17.4c18.5,6.6,34.6,17.2,48.2,32c13.6,14.8,20.4,35,20.4,60.5
		C665.2,505.8,655,530.5,634.6,551.5z"/>
</g>
<g>
</g>
<g>
</g>
<g>
</g>
<g>
</g>
<g>
</g>
</svg>
